<svg width="469" height="469" viewBox="0 0 469 469" fill="none" xmlns="http://www.w3.org/2000/svg">
<g clip-path="url(#clip0_2855_2463)">
<g opacity="0.5">
<path opacity="0.2" d="M-321.176 -30.2285H-347.628V-3.77656M-321.176 -30.2285V-3.77656M-321.176 -30.2285H-294.724M-321.176 -3.77656H-347.628M-321.176 -3.77656V22.6754M-321.176 -3.77656H-294.724M-347.628 -3.77656V22.6754M-321.176 22.6754H-347.628M-321.176 22.6754V49.1273M-321.176 22.6754H-294.724M-347.628 22.6754V49.1273M-321.176 49.1273H-347.628M-321.176 49.1273V75.5793M-321.176 49.1273H-294.724M-347.628 49.1273V75.5793M-321.176 75.5793H-347.628M-321.176 75.5793V102.031M-321.176 75.5793H-294.724M-347.628 75.5793V102.031M-321.176 102.031H-347.628M-321.176 102.031V128.483M-321.176 102.031H-294.724M-347.628 102.031V128.483M-321.176 128.483H-347.628M-321.176 128.483V154.935M-321.176 128.483H-294.724M-347.628 128.483V154.935M-321.176 154.935H-347.628M-321.176 154.935V181.387M-321.176 154.935H-294.724M-347.628 154.935V181.387M-321.176 181.387H-347.628M-321.176 181.387V207.839M-321.176 181.387H-294.724M-347.628 181.387V207.839M-321.176 207.839H-347.628M-321.176 207.839V234.291M-321.176 207.839H-294.724M-347.628 207.839V234.291M-321.176 234.291H-347.628M-321.176 234.291V260.743M-321.176 234.291H-294.724M-347.628 234.291V260.743M-321.176 260.743H-347.628M-321.176 260.743V287.195M-321.176 260.743H-294.724M-347.628 260.743V287.195M-321.176 287.195H-347.628M-321.176 287.195V313.647M-321.176 287.195H-294.724M-347.628 287.195V313.647M-321.176 313.647H-347.628M-321.176 313.647V340.099M-321.176 313.647H-294.724M-347.628 313.647V340.099M-321.176 340.099H-347.628M-321.176 340.099V366.551M-321.176 340.099H-294.724M-347.628 340.099V366.551M-321.176 366.551H-347.628M-321.176 366.551V393.003M-321.176 366.551H-294.724M-347.628 366.551V393.003M-321.176 393.003H-347.628M-321.176 393.003V419.455M-321.176 393.003H-294.724M-347.628 393.003V419.455M-321.176 419.455H-347.628M-321.176 419.455V445.907M-321.176 419.455H-294.724M-347.628 419.455V445.907M-321.176 445.907H-347.628M-321.176 445.907V472.359M-321.176 445.907H-294.724M-347.628 445.907V472.359M-321.176 472.359H-347.628M-321.176 472.359V498.811M-321.176 472.359H-294.724M-347.628 472.359V498.811H-321.176M-321.176 498.811H-294.724M-294.724 -30.2285V-3.77656M-294.724 -30.2285H-268.272M-294.724 -3.77656V22.6754M-294.724 -3.77656H-268.272M-294.724 22.6754V49.1273M-294.724 22.6754H-268.272M-294.724 49.1273V75.5793M-294.724 49.1273H-268.272M-294.724 75.5793V102.031M-294.724 75.5793H-268.272M-294.724 102.031V128.483M-294.724 102.031H-268.272M-294.724 128.483V154.935M-294.724 128.483H-268.272M-294.724 154.935V181.387M-294.724 154.935H-268.272M-294.724 181.387V207.839M-294.724 181.387H-268.272M-294.724 207.839V234.291M-294.724 207.839H-268.272M-294.724 234.291V260.743M-294.724 234.291H-268.272M-294.724 260.743V287.195M-294.724 260.743H-268.272M-294.724 287.195V313.647M-294.724 287.195H-268.272M-294.724 313.647V340.099M-294.724 313.647H-268.272M-294.724 340.099V366.551M-294.724 340.099H-268.272M-294.724 366.551V393.003M-294.724 366.551H-268.272M-294.724 393.003V419.455M-294.724 393.003H-268.272M-294.724 419.455V445.907M-294.724 419.455H-268.272M-294.724 445.907V472.359M-294.724 445.907H-268.272M-294.724 472.359V498.811M-294.724 472.359H-268.272M-294.724 498.811H-268.272M-268.272 -30.2285V-3.77656M-268.272 -30.2285H-241.82M-268.272 -3.77656V22.6754M-268.272 -3.77656H-241.82M-268.272 22.6754V49.1273M-268.272 22.6754H-241.82M-268.272 49.1273V75.5793M-268.272 49.1273H-241.82M-268.272 75.5793V102.031M-268.272 75.5793H-241.82M-268.272 102.031V128.483M-268.272 102.031H-241.82M-268.272 128.483V154.935M-268.272 128.483H-241.82M-268.272 154.935V181.387M-268.272 154.935H-241.82M-268.272 181.387V207.839M-268.272 181.387H-241.82M-268.272 207.839V234.291M-268.272 207.839H-241.82M-268.272 234.291V260.743M-268.272 234.291H-241.82M-268.272 260.743V287.195M-268.272 260.743H-241.82M-268.272 287.195V313.647M-268.272 287.195H-241.82M-268.272 313.647V340.099M-268.272 313.647H-241.82M-268.272 340.099V366.551M-268.272 340.099H-241.82M-268.272 366.551V393.003M-268.272 366.551H-241.82M-268.272 393.003V419.455M-268.272 393.003H-241.82M-268.272 419.455V445.907M-268.272 419.455H-241.82M-268.272 445.907V472.359M-268.272 445.907H-241.82M-268.272 472.359V498.811M-268.272 472.359H-241.82M-268.272 498.811H-241.82M-241.82 -30.2285V-3.77656M-241.82 -30.2285H-215.368M-241.82 -3.77656V22.6754M-241.82 -3.77656H-215.368M-241.82 22.6754V49.1273M-241.82 22.6754H-215.368M-241.82 49.1273V75.5793M-241.82 49.1273H-215.368M-241.82 75.5793V102.031M-241.82 75.5793H-215.368M-241.82 102.031V128.483M-241.82 102.031H-215.368M-241.82 128.483V154.935M-241.82 128.483H-215.368M-241.82 154.935V181.387M-241.82 154.935H-215.368M-241.82 181.387V207.839M-241.82 181.387H-215.368M-241.82 207.839V234.291M-241.82 207.839H-215.368M-241.82 234.291V260.743M-241.82 234.291H-215.368M-241.82 260.743V287.195M-241.82 260.743H-215.368M-241.82 287.195V313.647M-241.82 287.195H-215.368M-241.82 313.647V340.099M-241.82 313.647H-215.368M-241.82 340.099V366.551M-241.82 340.099H-215.368M-241.82 366.551V393.003M-241.82 366.551H-215.368M-241.82 393.003V419.455M-241.82 393.003H-215.368M-241.82 419.455V445.907M-241.82 419.455H-215.368M-241.82 445.907V472.359M-241.82 445.907H-215.368M-241.82 472.359V498.811M-241.82 472.359H-215.368M-241.82 498.811H-215.368M-215.368 -30.2285V-3.77656M-215.368 -30.2285H-188.916M-215.368 -3.77656V22.6754M-215.368 -3.77656H-188.916M-215.368 22.6754V49.1273M-215.368 22.6754H-188.916M-215.368 49.1273V75.5793M-215.368 49.1273H-188.916M-215.368 75.5793V102.031M-215.368 75.5793H-188.916M-215.368 102.031V128.483M-215.368 102.031H-188.916M-215.368 128.483V154.935M-215.368 128.483H-188.916M-215.368 154.935V181.387M-215.368 154.935H-188.916M-215.368 181.387V207.839M-215.368 181.387H-188.916M-215.368 207.839V234.291M-215.368 207.839H-188.916M-215.368 234.291V260.743M-215.368 234.291H-188.916M-215.368 260.743V287.195M-215.368 260.743H-188.916M-215.368 287.195V313.647M-215.368 287.195H-188.916M-215.368 313.647V340.099M-215.368 313.647H-188.916M-215.368 340.099V366.551M-215.368 340.099H-188.916M-215.368 366.551V393.003M-215.368 366.551H-188.916M-215.368 393.003V419.455M-215.368 393.003H-188.916M-215.368 419.455V445.907M-215.368 419.455H-188.916M-215.368 445.907V472.359M-215.368 445.907H-188.916M-215.368 472.359V498.811M-215.368 472.359H-188.916M-215.368 498.811H-188.916M-188.916 -30.2285V-3.77656M-188.916 -30.2285H-162.464M-188.916 -3.77656V22.6754M-188.916 -3.77656H-162.464M-188.916 22.6754V49.1273M-188.916 22.6754H-162.464M-188.916 49.1273V75.5793M-188.916 49.1273H-162.464M-188.916 75.5793V102.031M-188.916 75.5793H-162.464M-188.916 102.031V128.483M-188.916 102.031H-162.464M-188.916 128.483V154.935M-188.916 128.483H-162.464M-188.916 154.935V181.387M-188.916 154.935H-162.464M-188.916 181.387V207.839M-188.916 181.387H-162.464M-188.916 207.839V234.291M-188.916 207.839H-162.464M-188.916 234.291V260.743M-188.916 234.291H-162.464M-188.916 260.743V287.195M-188.916 260.743H-162.464M-188.916 287.195V313.647M-188.916 287.195H-162.464M-188.916 313.647V340.099M-188.916 313.647H-162.464M-188.916 340.099V366.551M-188.916 340.099H-162.464M-188.916 366.551V393.003M-188.916 366.551H-162.464M-188.916 393.003V419.455M-188.916 393.003H-162.464M-188.916 419.455V445.907M-188.916 419.455H-162.464M-188.916 445.907V472.359M-188.916 445.907H-162.464M-188.916 472.359V498.811M-188.916 472.359H-162.464M-188.916 498.811H-162.464M-162.464 -30.2285V-3.77656M-162.464 -30.2285H-136.012M-162.464 -3.77656V22.6754M-162.464 -3.77656H-136.012M-162.464 22.6754V49.1273M-162.464 22.6754H-136.012M-162.464 49.1273V75.5793M-162.464 49.1273H-136.012M-162.464 75.5793V102.031M-162.464 75.5793H-136.012M-162.464 102.031V128.483M-162.464 102.031H-136.012M-162.464 128.483V154.935M-162.464 128.483H-136.012M-162.464 154.935V181.387M-162.464 154.935H-136.012M-162.464 181.387V207.839M-162.464 181.387H-136.012M-162.464 207.839V234.291M-162.464 207.839H-136.012M-162.464 234.291V260.743M-162.464 234.291H-136.012M-162.464 260.743V287.195M-162.464 260.743H-136.012M-162.464 287.195V313.647M-162.464 287.195H-136.012M-162.464 313.647V340.099M-162.464 313.647H-136.012M-162.464 340.099V366.551M-162.464 340.099H-136.012M-162.464 366.551V393.003M-162.464 366.551H-136.012M-162.464 393.003V419.455M-162.464 393.003H-136.012M-162.464 419.455V445.907M-162.464 419.455H-136.012M-162.464 445.907V472.359M-162.464 445.907H-136.012M-162.464 472.359V498.811M-162.464 472.359H-136.012M-162.464 498.811H-136.012M-136.012 -30.2285V-3.77656M-136.012 -30.2285H-109.56M-136.012 -3.77656V22.6754M-136.012 -3.77656H-109.56M-136.012 22.6754V49.1273M-136.012 22.6754H-109.56M-136.012 49.1273V75.5793M-136.012 49.1273H-109.56M-136.012 75.5793V102.031M-136.012 75.5793H-109.56M-136.012 102.031V128.483M-136.012 102.031H-109.56M-136.012 128.483V154.935M-136.012 128.483H-109.56M-136.012 154.935V181.387M-136.012 154.935H-109.56M-136.012 181.387V207.839M-136.012 181.387H-109.56M-136.012 207.839V234.291M-136.012 207.839H-109.56M-136.012 234.291V260.743M-136.012 234.291H-109.56M-136.012 260.743V287.195M-136.012 260.743H-109.56M-136.012 287.195V313.647M-136.012 287.195H-109.56M-136.012 313.647V340.099M-136.012 313.647H-109.56M-136.012 340.099V366.551M-136.012 340.099H-109.56M-136.012 366.551V393.003M-136.012 366.551H-109.56M-136.012 393.003V419.455M-136.012 393.003H-109.56M-136.012 419.455V445.907M-136.012 419.455H-109.56M-136.012 445.907V472.359M-136.012 445.907H-109.56M-136.012 472.359V498.811M-136.012 472.359H-109.56M-136.012 498.811H-109.56M-109.56 -30.2285V-3.77656M-109.56 -30.2285H-83.1084M-109.56 -3.77656V22.6754M-109.56 -3.77656H-83.1084M-109.56 22.6754V49.1273M-109.56 22.6754H-83.1084M-109.56 49.1273V75.5793M-109.56 49.1273H-83.1084M-109.56 75.5793V102.031M-109.56 75.5793H-83.1084M-109.56 102.031V128.483M-109.56 102.031H-83.1084M-109.56 128.483V154.935M-109.56 128.483H-83.1084M-109.56 154.935V181.387M-109.56 154.935H-83.1084M-109.56 181.387V207.839M-109.56 181.387H-83.1084M-109.56 207.839V234.291M-109.56 207.839H-83.1084M-109.56 234.291V260.743M-109.56 234.291H-83.1084M-109.56 260.743V287.195M-109.56 260.743H-83.1084M-109.56 287.195V313.647M-109.56 287.195H-83.1084M-109.56 313.647V340.099M-109.56 313.647H-83.1084M-109.56 340.099V366.551M-109.56 340.099H-83.1084M-109.56 366.551V393.003M-109.56 366.551H-83.1084M-109.56 393.003V419.455M-109.56 393.003H-83.1084M-109.56 419.455V445.907M-109.56 419.455H-83.1084M-109.56 445.907V472.359M-109.56 445.907H-83.1084M-109.56 472.359V498.811M-109.56 472.359H-83.1084M-109.56 498.811H-83.1084M-83.1084 -30.2285V-3.77656M-83.1084 -30.2285H-56.6565M-83.1084 -3.77656V22.6754M-83.1084 -3.77656H-56.6565M-83.1084 22.6754V49.1273M-83.1084 22.6754H-56.6565M-83.1084 49.1273V75.5793M-83.1084 49.1273H-56.6565M-83.1084 75.5793V102.031M-83.1084 75.5793H-56.6565M-83.1084 102.031V128.483M-83.1084 102.031H-56.6565M-83.1084 128.483V154.935M-83.1084 128.483H-56.6565M-83.1084 154.935V181.387M-83.1084 154.935H-56.6565M-83.1084 181.387V207.839M-83.1084 181.387H-56.6565M-83.1084 207.839V234.291M-83.1084 207.839H-56.6565M-83.1084 234.291V260.743M-83.1084 234.291H-56.6565M-83.1084 260.743V287.195M-83.1084 260.743H-56.6565M-83.1084 287.195V313.647M-83.1084 287.195H-56.6565M-83.1084 313.647V340.099M-83.1084 313.647H-56.6565M-83.1084 340.099V366.551M-83.1084 340.099H-56.6565M-83.1084 366.551V393.003M-83.1084 366.551H-56.6565M-83.1084 393.003V419.455M-83.1084 393.003H-56.6565M-83.1084 419.455V445.907M-83.1084 419.455H-56.6565M-83.1084 445.907V472.359M-83.1084 445.907H-56.6565M-83.1084 472.359V498.811M-83.1084 472.359H-56.6565M-83.1084 498.811H-56.6565M-56.6565 -30.2285V-3.77656M-56.6565 -30.2285H-30.2045M-56.6565 -3.77656V22.6754M-56.6565 -3.77656H-30.2045M-56.6565 22.6754V49.1273M-56.6565 22.6754H-30.2045M-56.6565 49.1273V75.5793M-56.6565 49.1273H-30.2045M-56.6565 75.5793V102.031M-56.6565 75.5793H-30.2045M-56.6565 102.031V128.483M-56.6565 102.031H-30.2045M-56.6565 128.483V154.935M-56.6565 128.483H-30.2045M-56.6565 154.935V181.387M-56.6565 154.935H-30.2045M-56.6565 181.387V207.839M-56.6565 181.387H-30.2045M-56.6565 207.839V234.291M-56.6565 207.839H-30.2045M-56.6565 234.291V260.743M-56.6565 234.291H-30.2045M-56.6565 260.743V287.195M-56.6565 260.743H-30.2045M-56.6565 287.195V313.647M-56.6565 287.195H-30.2045M-56.6565 313.647V340.099M-56.6565 313.647H-30.2045M-56.6565 340.099V366.551M-56.6565 340.099H-30.2045M-56.6565 366.551V393.003M-56.6565 366.551H-30.2045M-56.6565 393.003V419.455M-56.6565 393.003H-30.2045M-56.6565 419.455V445.907M-56.6565 419.455H-30.2045M-56.6565 445.907V472.359M-56.6565 445.907H-30.2045M-56.6565 472.359V498.811M-56.6565 472.359H-30.2045M-56.6565 498.811H-30.2045M-30.2045 -30.2285V-3.77656M-30.2045 -30.2285H-3.75255M-30.2045 -3.77656V22.6754M-30.2045 -3.77656H-3.75255M-30.2045 22.6754V49.1273M-30.2045 22.6754H-3.75255M-30.2045 49.1273V75.5793M-30.2045 49.1273H-3.75255M-30.2045 75.5793V102.031M-30.2045 75.5793H-3.75255M-30.2045 102.031V128.483M-30.2045 102.031H-3.75255M-30.2045 128.483V154.935M-30.2045 128.483H-3.75255M-30.2045 154.935V181.387M-30.2045 154.935H-3.75255M-30.2045 181.387V207.839M-30.2045 181.387H-3.75255M-30.2045 207.839V234.291M-30.2045 207.839H-3.75255M-30.2045 234.291V260.743M-30.2045 234.291H-3.75255M-30.2045 260.743V287.195M-30.2045 260.743H-3.75255M-30.2045 287.195V313.647M-30.2045 287.195H-3.75255M-30.2045 313.647V340.099M-30.2045 313.647H-3.75255M-30.2045 340.099V366.551M-30.2045 340.099H-3.75255M-30.2045 366.551V393.003M-30.2045 366.551H-3.75255M-30.2045 393.003V419.455M-30.2045 393.003H-3.75255M-30.2045 419.455V445.907M-30.2045 419.455H-3.75255M-30.2045 445.907V472.359M-30.2045 445.907H-3.75255M-30.2045 472.359V498.811M-30.2045 472.359H-3.75255M-30.2045 498.811H-3.75255M-3.75255 -30.2285V-3.77656M-3.75255 -30.2285H22.6994M-3.75255 -3.77656V22.6754M-3.75255 -3.77656H22.6994M-3.75255 22.6754V49.1273M-3.75255 22.6754H22.6994M-3.75255 49.1273V75.5793M-3.75255 49.1273H22.6994M-3.75255 75.5793V102.031M-3.75255 75.5793H22.6994M-3.75255 102.031V128.483M-3.75255 102.031H22.6994M-3.75255 128.483V154.935M-3.75255 128.483H22.6994M-3.75255 154.935V181.387M-3.75255 154.935H22.6994M-3.75255 181.387V207.839M-3.75255 181.387H22.6994M-3.75255 207.839V234.291M-3.75255 207.839H22.6994M-3.75255 234.291V260.743M-3.75255 234.291H22.6994M-3.75255 260.743V287.195M-3.75255 260.743H22.6994M-3.75255 287.195V313.647M-3.75255 287.195H22.6994M-3.75255 313.647V340.099M-3.75255 313.647H22.6994M-3.75255 340.099V366.551M-3.75255 340.099H22.6994M-3.75255 366.551V393.003M-3.75255 366.551H22.6994M-3.75255 393.003V419.455M-3.75255 393.003H22.6994M-3.75255 419.455V445.907M-3.75255 419.455H22.6994M-3.75255 445.907V472.359M-3.75255 445.907H22.6994M-3.75255 472.359V498.811M-3.75255 472.359H22.6994M-3.75255 498.811H22.6994M22.6994 -30.2285V-3.77656M22.6994 -30.2285H49.1514M22.6994 -3.77656V22.6754M22.6994 -3.77656H49.1514M22.6994 22.6754V49.1273M22.6994 22.6754H49.1514M22.6994 49.1273V75.5793M22.6994 49.1273H49.1514M22.6994 75.5793V102.031M22.6994 75.5793H49.1514M22.6994 102.031V128.483M22.6994 102.031H49.1514M22.6994 128.483V154.935M22.6994 128.483H49.1514M22.6994 154.935V181.387M22.6994 154.935H49.1514M22.6994 181.387V207.839M22.6994 181.387H49.1514M22.6994 207.839V234.291M22.6994 207.839H49.1514M22.6994 234.291V260.743M22.6994 234.291H49.1514M22.6994 260.743V287.195M22.6994 260.743H49.1514M22.6994 287.195V313.647M22.6994 287.195H49.1514M22.6994 313.647V340.099M22.6994 313.647H49.1514M22.6994 340.099V366.551M22.6994 340.099H49.1514M22.6994 366.551V393.003M22.6994 366.551H49.1514M22.6994 393.003V419.455M22.6994 393.003H49.1514M22.6994 419.455V445.907M22.6994 419.455H49.1514M22.6994 445.907V472.359M22.6994 445.907H49.1514M22.6994 472.359V498.811M22.6994 472.359H49.1514M22.6994 498.811H49.1514M49.1514 -30.2285V-3.77656M49.1514 -30.2285H75.6033M49.1514 -3.77656V22.6754M49.1514 -3.77656H75.6033M49.1514 22.6754V49.1273M49.1514 22.6754H75.6033M49.1514 49.1273V75.5793M49.1514 49.1273H75.6033M49.1514 75.5793V102.031M49.1514 75.5793H75.6033M49.1514 102.031V128.483M49.1514 102.031H75.6033M49.1514 128.483V154.935M49.1514 128.483H75.6033M49.1514 154.935V181.387M49.1514 154.935H75.6033M49.1514 181.387V207.839M49.1514 181.387H75.6033M49.1514 207.839V234.291M49.1514 207.839H75.6033M49.1514 234.291V260.743M49.1514 234.291H75.6033M49.1514 260.743V287.195M49.1514 260.743H75.6033M49.1514 287.195V313.647M49.1514 287.195H75.6033M49.1514 313.647V340.099M49.1514 313.647H75.6033M49.1514 340.099V366.551M49.1514 340.099H75.6033M49.1514 366.551V393.003M49.1514 366.551H75.6033M49.1514 393.003V419.455M49.1514 393.003H75.6033M49.1514 419.455V445.907M49.1514 419.455H75.6033M49.1514 445.907V472.359M49.1514 445.907H75.6033M49.1514 472.359V498.811M49.1514 472.359H75.6033M49.1514 498.811H75.6033M75.6033 -30.2285V-3.77656M75.6033 -30.2285H102.055M75.6033 -3.77656V22.6754M75.6033 -3.77656H102.055M75.6033 22.6754V49.1273M75.6033 22.6754H102.055M75.6033 49.1273V75.5793M75.6033 49.1273H102.055M75.6033 75.5793V102.031M75.6033 75.5793H102.055M75.6033 102.031V128.483M75.6033 102.031H102.055M75.6033 128.483V154.935M75.6033 128.483H102.055M75.6033 154.935V181.387M75.6033 154.935H102.055M75.6033 181.387V207.839M75.6033 181.387H102.055M75.6033 207.839V234.291M75.6033 207.839H102.055M75.6033 234.291V260.743M75.6033 234.291H102.055M75.6033 260.743V287.195M75.6033 260.743H102.055M75.6033 287.195V313.647M75.6033 287.195H102.055M75.6033 313.647V340.099M75.6033 313.647H102.055M75.6033 340.099V366.551M75.6033 340.099H102.055M75.6033 366.551V393.003M75.6033 366.551H102.055M75.6033 393.003V419.455M75.6033 393.003H102.055M75.6033 419.455V445.907M75.6033 419.455H102.055M75.6033 445.907V472.359M75.6033 445.907H102.055M75.6033 472.359V498.811M75.6033 472.359H102.055M75.6033 498.811H102.055M102.055 -30.2285V-3.77656M102.055 -30.2285H128.507M102.055 -3.77656V22.6754M102.055 -3.77656H128.507M102.055 22.6754V49.1273M102.055 22.6754H128.507M102.055 49.1273V75.5793M102.055 49.1273H128.507M102.055 75.5793V102.031M102.055 75.5793H128.507M102.055 102.031V128.483M102.055 102.031H128.507M102.055 128.483V154.935M102.055 128.483H128.507M102.055 154.935V181.387M102.055 154.935H128.507M102.055 181.387V207.839M102.055 181.387H128.507M102.055 207.839V234.291M102.055 207.839H128.507M102.055 234.291V260.743M102.055 234.291H128.507M102.055 260.743V287.195M102.055 260.743H128.507M102.055 287.195V313.647M102.055 287.195H128.507M102.055 313.647V340.099M102.055 313.647H128.507M102.055 340.099V366.551M102.055 340.099H128.507M102.055 366.551V393.003M102.055 366.551H128.507M102.055 393.003V419.455M102.055 393.003H128.507M102.055 419.455V445.907M102.055 419.455H128.507M102.055 445.907V472.359M102.055 445.907H128.507M102.055 472.359V498.811M102.055 472.359H128.507M102.055 498.811H128.507M128.507 -30.2285V-3.77656M128.507 -30.2285H154.959M128.507 -3.77656V22.6754M128.507 -3.77656H154.959M128.507 22.6754V49.1273M128.507 22.6754H154.959M128.507 49.1273V75.5793M128.507 49.1273H154.959M128.507 75.5793V102.031M128.507 75.5793H154.959M128.507 102.031V128.483M128.507 102.031H154.959M128.507 128.483V154.935M128.507 128.483H154.959M128.507 154.935V181.387M128.507 154.935H154.959M128.507 181.387V207.839M128.507 181.387H154.959M128.507 207.839V234.291M128.507 207.839H154.959M128.507 234.291V260.743M128.507 234.291H154.959M128.507 260.743V287.195M128.507 260.743H154.959M128.507 287.195V313.647M128.507 287.195H154.959M128.507 313.647V340.099M128.507 313.647H154.959M128.507 340.099V366.551M128.507 340.099H154.959M128.507 366.551V393.003M128.507 366.551H154.959M128.507 393.003V419.455M128.507 393.003H154.959M128.507 419.455V445.907M128.507 419.455H154.959M128.507 445.907V472.359M128.507 445.907H154.959M128.507 472.359V498.811M128.507 472.359H154.959M128.507 498.811H154.959M154.959 -30.2285V-3.77656M154.959 -30.2285H181.411M154.959 -3.77656V22.6754M154.959 -3.77656H181.411M154.959 22.6754V49.1273M154.959 22.6754H181.411M154.959 49.1273V75.5793M154.959 49.1273H181.411M154.959 75.5793V102.031M154.959 75.5793H181.411M154.959 102.031V128.483M154.959 102.031H181.411M154.959 128.483V154.935M154.959 128.483H181.411M154.959 154.935V181.387M154.959 154.935H181.411M154.959 181.387V207.839M154.959 181.387H181.411M154.959 207.839V234.291M154.959 207.839H181.411M154.959 234.291V260.743M154.959 234.291H181.411M154.959 260.743V287.195M154.959 260.743H181.411M154.959 287.195V313.647M154.959 287.195H181.411M154.959 313.647V340.099M154.959 313.647H181.411M154.959 340.099V366.551M154.959 340.099H181.411M154.959 366.551V393.003M154.959 366.551H181.411M154.959 393.003V419.455M154.959 393.003H181.411M154.959 419.455V445.907M154.959 419.455H181.411M154.959 445.907V472.359M154.959 445.907H181.411M154.959 472.359V498.811M154.959 472.359H181.411M154.959 498.811H181.411M181.411 -30.2285V-3.77656M181.411 -30.2285H207.863M181.411 -3.77656V22.6754M181.411 -3.77656H207.863M181.411 22.6754V49.1273M181.411 22.6754H207.863M181.411 49.1273V75.5793M181.411 49.1273H207.863M181.411 75.5793V102.031M181.411 75.5793H207.863M181.411 102.031V128.483M181.411 102.031H207.863M181.411 128.483V154.935M181.411 128.483H207.863M181.411 154.935V181.387M181.411 154.935H207.863M181.411 181.387V207.839M181.411 181.387H207.863M181.411 207.839V234.291M181.411 207.839H207.863M181.411 234.291V260.743M181.411 234.291H207.863M181.411 260.743V287.195M181.411 260.743H207.863M181.411 287.195V313.647M181.411 287.195H207.863M181.411 313.647V340.099M181.411 313.647H207.863M181.411 340.099V366.551M181.411 340.099H207.863M181.411 366.551V393.003M181.411 366.551H207.863M181.411 393.003V419.455M181.411 393.003H207.863M181.411 419.455V445.907M181.411 419.455H207.863M181.411 445.907V472.359M181.411 445.907H207.863M181.411 472.359V498.811M181.411 472.359H207.863M181.411 498.811H207.863M207.863 -30.2285V-3.77656M207.863 -30.2285H234.315M207.863 -3.77656V22.6754M207.863 -3.77656H234.315M207.863 22.6754V49.1273M207.863 22.6754H234.315M207.863 49.1273V75.5793M207.863 49.1273H234.315M207.863 75.5793V102.031M207.863 75.5793H234.315M207.863 102.031V128.483M207.863 102.031H234.315M207.863 128.483V154.935M207.863 128.483H234.315M207.863 154.935V181.387M207.863 154.935H234.315M207.863 181.387V207.839M207.863 181.387H234.315M207.863 207.839V234.291M207.863 207.839H234.315M207.863 234.291V260.743M207.863 234.291H234.315M207.863 260.743V287.195M207.863 260.743H234.315M207.863 287.195V313.647M207.863 287.195H234.315M207.863 313.647V340.099M207.863 313.647H234.315M207.863 340.099V366.551M207.863 340.099H234.315M207.863 366.551V393.003M207.863 366.551H234.315M207.863 393.003V419.455M207.863 393.003H234.315M207.863 419.455V445.907M207.863 419.455H234.315M207.863 445.907V472.359M207.863 445.907H234.315M207.863 472.359V498.811M207.863 472.359H234.315M207.863 498.811H234.315M234.315 -30.2285V-3.77656M234.315 -30.2285H260.767M234.315 -3.77656V22.6754M234.315 -3.77656H260.767M234.315 22.6754V49.1273M234.315 22.6754H260.767M234.315 49.1273V75.5793M234.315 49.1273H260.767M234.315 75.5793V102.031M234.315 75.5793H260.767M234.315 102.031V128.483M234.315 102.031H260.767M234.315 128.483V154.935M234.315 128.483H260.767M234.315 154.935V181.387M234.315 154.935H260.767M234.315 181.387V207.839M234.315 181.387H260.767M234.315 207.839V234.291M234.315 207.839H260.767M234.315 234.291V260.743M234.315 234.291H260.767M234.315 260.743V287.195M234.315 260.743H260.767M234.315 287.195V313.647M234.315 287.195H260.767M234.315 313.647V340.099M234.315 313.647H260.767M234.315 340.099V366.551M234.315 340.099H260.767M234.315 366.551V393.003M234.315 366.551H260.767M234.315 393.003V419.455M234.315 393.003H260.767M234.315 419.455V445.907M234.315 419.455H260.767M234.315 445.907V472.359M234.315 445.907H260.767M234.315 472.359V498.811M234.315 472.359H260.767M234.315 498.811H260.767M260.767 -30.2285V-3.77656M260.767 -30.2285H287.219M260.767 -3.77656V22.6754M260.767 -3.77656H287.219M260.767 22.6754V49.1273M260.767 22.6754H287.219M260.767 49.1273V75.5793M260.767 49.1273H287.219M260.767 75.5793V102.031M260.767 75.5793H287.219M260.767 102.031V128.483M260.767 102.031H287.219M260.767 128.483V154.935M260.767 128.483H287.219M260.767 154.935V181.387M260.767 154.935H287.219M260.767 181.387V207.839M260.767 181.387H287.219M260.767 207.839V234.291M260.767 207.839H287.219M260.767 234.291V260.743M260.767 234.291H287.219M260.767 260.743V287.195M260.767 260.743H287.219M260.767 287.195V313.647M260.767 287.195H287.219M260.767 313.647V340.099M260.767 313.647H287.219M260.767 340.099V366.551M260.767 340.099H287.219M260.767 366.551V393.003M260.767 366.551H287.219M260.767 393.003V419.455M260.767 393.003H287.219M260.767 419.455V445.907M260.767 419.455H287.219M260.767 445.907V472.359M260.767 445.907H287.219M260.767 472.359V498.811M260.767 472.359H287.219M260.767 498.811H287.219M287.219 -30.2285V-3.77656M287.219 -30.2285H313.671M287.219 -3.77656V22.6754M287.219 -3.77656H313.671M287.219 22.6754V49.1273M287.219 22.6754H313.671M287.219 49.1273V75.5793M287.219 49.1273H313.671M287.219 75.5793V102.031M287.219 75.5793H313.671M287.219 102.031V128.483M287.219 102.031H313.671M287.219 128.483V154.935M287.219 128.483H313.671M287.219 154.935V181.387M287.219 154.935H313.671M287.219 181.387V207.839M287.219 181.387H313.671M287.219 207.839V234.291M287.219 207.839H313.671M287.219 234.291V260.743M287.219 234.291H313.671M287.219 260.743V287.195M287.219 260.743H313.671M287.219 287.195V313.647M287.219 287.195H313.671M287.219 313.647V340.099M287.219 313.647H313.671M287.219 340.099V366.551M287.219 340.099H313.671M287.219 366.551V393.003M287.219 366.551H313.671M287.219 393.003V419.455M287.219 393.003H313.671M287.219 419.455V445.907M287.219 419.455H313.671M287.219 445.907V472.359M287.219 445.907H313.671M287.219 472.359V498.811M287.219 472.359H313.671M287.219 498.811H313.671M313.671 -30.2285V-3.77656M313.671 -30.2285H340.123M313.671 -3.77656V22.6754M313.671 -3.77656H340.123M313.671 22.6754V49.1273M313.671 22.6754H340.123M313.671 49.1273V75.5793M313.671 49.1273H340.123M313.671 75.5793V102.031M313.671 75.5793H340.123M313.671 102.031V128.483M313.671 102.031H340.123M313.671 128.483V154.935M313.671 128.483H340.123M313.671 154.935V181.387M313.671 154.935H340.123M313.671 181.387V207.839M313.671 181.387H340.123M313.671 207.839V234.291M313.671 207.839H340.123M313.671 234.291V260.743M313.671 234.291H340.123M313.671 260.743V287.195M313.671 260.743H340.123M313.671 287.195V313.647M313.671 287.195H340.123M313.671 313.647V340.099M313.671 313.647H340.123M313.671 340.099V366.551M313.671 340.099H340.123M313.671 366.551V393.003M313.671 366.551H340.123M313.671 393.003V419.455M313.671 393.003H340.123M313.671 419.455V445.907M313.671 419.455H340.123M313.671 445.907V472.359M313.671 445.907H340.123M313.671 472.359V498.811M313.671 472.359H340.123M313.671 498.811H340.123M340.123 -30.2285V-3.77656M340.123 -30.2285H366.575M340.123 -3.77656V22.6754M340.123 -3.77656H366.575M340.123 22.6754V49.1273M340.123 22.6754H366.575M340.123 49.1273V75.5793M340.123 49.1273H366.575M340.123 75.5793V102.031M340.123 75.5793H366.575M340.123 102.031V128.483M340.123 102.031H366.575M340.123 128.483V154.935M340.123 128.483H366.575M340.123 154.935V181.387M340.123 154.935H366.575M340.123 181.387V207.839M340.123 181.387H366.575M340.123 207.839V234.291M340.123 207.839H366.575M340.123 234.291V260.743M340.123 234.291H366.575M340.123 260.743V287.195M340.123 260.743H366.575M340.123 287.195V313.647M340.123 287.195H366.575M340.123 313.647V340.099M340.123 313.647H366.575M340.123 340.099V366.551M340.123 340.099H366.575M340.123 366.551V393.003M340.123 366.551H366.575M340.123 393.003V419.455M340.123 393.003H366.575M340.123 419.455V445.907M340.123 419.455H366.575M340.123 445.907V472.359M340.123 445.907H366.575M340.123 472.359V498.811M340.123 472.359H366.575M340.123 498.811H366.575M366.575 -30.2285V-3.77656M366.575 -30.2285H393.027M366.575 -3.77656V22.6754M366.575 -3.77656H393.027M366.575 22.6754V49.1273M366.575 22.6754H393.027M366.575 49.1273V75.5793M366.575 49.1273H393.027M366.575 75.5793V102.031M366.575 75.5793H393.027M366.575 102.031V128.483M366.575 102.031H393.027M366.575 128.483V154.935M366.575 128.483H393.027M366.575 154.935V181.387M366.575 154.935H393.027M366.575 181.387V207.839M366.575 181.387H393.027M366.575 207.839V234.291M366.575 207.839H393.027M366.575 234.291V260.743M366.575 234.291H393.027M366.575 260.743V287.195M366.575 260.743H393.027M366.575 287.195V313.647M366.575 287.195H393.027M366.575 313.647V340.099M366.575 313.647H393.027M366.575 340.099V366.551M366.575 340.099H393.027M366.575 366.551V393.003M366.575 366.551H393.027M366.575 393.003V419.455M366.575 393.003H393.027M366.575 419.455V445.907M366.575 419.455H393.027M366.575 445.907V472.359M366.575 445.907H393.027M366.575 472.359V498.811M366.575 472.359H393.027M366.575 498.811H393.027M393.027 -30.2285V-3.77656M393.027 -30.2285H419.479M393.027 -3.77656V22.6754M393.027 -3.77656H419.479M393.027 22.6754V49.1273M393.027 22.6754H419.479M393.027 49.1273V75.5793M393.027 49.1273H419.479M393.027 75.5793V102.031M393.027 75.5793H419.479M393.027 102.031V128.483M393.027 102.031H419.479M393.027 128.483V154.935M393.027 128.483H419.479M393.027 154.935V181.387M393.027 154.935H419.479M393.027 181.387V207.839M393.027 181.387H419.479M393.027 207.839V234.291M393.027 207.839H419.479M393.027 234.291V260.743M393.027 234.291H419.479M393.027 260.743V287.195M393.027 260.743H419.479M393.027 287.195V313.647M393.027 287.195H419.479M393.027 313.647V340.099M393.027 313.647H419.479M393.027 340.099V366.551M393.027 340.099H419.479M393.027 366.551V393.003M393.027 366.551H419.479M393.027 393.003V419.455M393.027 393.003H419.479M393.027 419.455V445.907M393.027 419.455H419.479M393.027 445.907V472.359M393.027 445.907H419.479M393.027 472.359V498.811M393.027 472.359H419.479M393.027 498.811H419.479M419.479 -30.2285V-3.77656M419.479 -30.2285H445.931M419.479 -3.77656V22.6754M419.479 -3.77656H445.931M419.479 22.6754V49.1273M419.479 22.6754H445.931M419.479 49.1273V75.5793M419.479 49.1273H445.931M419.479 75.5793V102.031M419.479 75.5793H445.931M419.479 102.031V128.483M419.479 102.031H445.931M419.479 128.483V154.935M419.479 128.483H445.931M419.479 154.935V181.387M419.479 154.935H445.931M419.479 181.387V207.839M419.479 181.387H445.931M419.479 207.839V234.291M419.479 207.839H445.931M419.479 234.291V260.743M419.479 234.291H445.931M419.479 260.743V287.195M419.479 260.743H445.931M419.479 287.195V313.647M419.479 287.195H445.931M419.479 313.647V340.099M419.479 313.647H445.931M419.479 340.099V366.551M419.479 340.099H445.931M419.479 366.551V393.003M419.479 366.551H445.931M419.479 393.003V419.455M419.479 393.003H445.931M419.479 419.455V445.907M419.479 419.455H445.931M419.479 445.907V472.359M419.479 445.907H445.931M419.479 472.359V498.811M419.479 472.359H445.931M419.479 498.811H445.931M445.931 -30.2285V-3.77656M445.931 -30.2285H472.383M445.931 -3.77656V22.6754M445.931 -3.77656H472.383M445.931 22.6754V49.1273M445.931 22.6754H472.383M445.931 49.1273V75.5793M445.931 49.1273H472.383M445.931 75.5793V102.031M445.931 75.5793H472.383M445.931 102.031V128.483M445.931 102.031H472.383M445.931 128.483V154.935M445.931 128.483H472.383M445.931 154.935V181.387M445.931 154.935H472.383M445.931 181.387V207.839M445.931 181.387H472.383M445.931 207.839V234.291M445.931 207.839H472.383M445.931 234.291V260.743M445.931 234.291H472.383M445.931 260.743V287.195M445.931 260.743H472.383M445.931 287.195V313.647M445.931 287.195H472.383M445.931 313.647V340.099M445.931 313.647H472.383M445.931 340.099V366.551M445.931 340.099H472.383M445.931 366.551V393.003M445.931 366.551H472.383M445.931 393.003V419.455M445.931 393.003H472.383M445.931 419.455V445.907M445.931 419.455H472.383M445.931 445.907V472.359M445.931 445.907H472.383M445.931 472.359V498.811M445.931 472.359H472.383M445.931 498.811H472.383M472.383 -30.2285V-3.77656M472.383 -30.2285H498.835M472.383 -3.77656V22.6754M472.383 -3.77656H498.835M472.383 22.6754V49.1273M472.383 22.6754H498.835M472.383 49.1273V75.5793M472.383 49.1273H498.835M472.383 75.5793V102.031M472.383 75.5793H498.835M472.383 102.031V128.483M472.383 102.031H498.835M472.383 128.483V154.935M472.383 128.483H498.835M472.383 154.935V181.387M472.383 154.935H498.835M472.383 181.387V207.839M472.383 181.387H498.835M472.383 207.839V234.291M472.383 207.839H498.835M472.383 234.291V260.743M472.383 234.291H498.835M472.383 260.743V287.195M472.383 260.743H498.835M472.383 287.195V313.647M472.383 287.195H498.835M472.383 313.647V340.099M472.383 313.647H498.835M472.383 340.099V366.551M472.383 340.099H498.835M472.383 366.551V393.003M472.383 366.551H498.835M472.383 393.003V419.455M472.383 393.003H498.835M472.383 419.455V445.907M472.383 419.455H498.835M472.383 445.907V472.359M472.383 445.907H498.835M472.383 472.359V498.811M472.383 472.359H498.835M472.383 498.811H498.835M498.835 -30.2285V-3.77656M498.835 -30.2285H525.287M498.835 -3.77656V22.6754M498.835 -3.77656H525.287M498.835 22.6754V49.1273M498.835 22.6754H525.287M498.835 49.1273V75.5793M498.835 49.1273H525.287M498.835 75.5793V102.031M498.835 75.5793H525.287M498.835 102.031V128.483M498.835 102.031H525.287M498.835 128.483V154.935M498.835 128.483H525.287M498.835 154.935V181.387M498.835 154.935H525.287M498.835 181.387V207.839M498.835 181.387H525.287M498.835 207.839V234.291M498.835 207.839H525.287M498.835 234.291V260.743M498.835 234.291H525.287M498.835 260.743V287.195M498.835 260.743H525.287M498.835 287.195V313.647M498.835 287.195H525.287M498.835 313.647V340.099M498.835 313.647H525.287M498.835 340.099V366.551M498.835 340.099H525.287M498.835 366.551V393.003M498.835 366.551H525.287M498.835 393.003V419.455M498.835 393.003H525.287M498.835 419.455V445.907M498.835 419.455H525.287M498.835 445.907V472.359M498.835 445.907H525.287M498.835 472.359V498.811M498.835 472.359H525.287M498.835 498.811H525.287M525.287 -30.2285V-3.77656M525.287 -30.2285H551.738M525.287 -3.77656V22.6754M525.287 -3.77656H551.738M525.287 22.6754V49.1273M525.287 22.6754H551.738M525.287 49.1273V75.5793M525.287 49.1273H551.738M525.287 75.5793V102.031M525.287 75.5793H551.738M525.287 102.031V128.483M525.287 102.031H551.738M525.287 128.483V154.935M525.287 128.483H551.738M525.287 154.935V181.387M525.287 154.935H551.738M525.287 181.387V207.839M525.287 181.387H551.738M525.287 207.839V234.291M525.287 207.839H551.738M525.287 234.291V260.743M525.287 234.291H551.738M525.287 260.743V287.195M525.287 260.743H551.738M525.287 287.195V313.647M525.287 287.195H551.738M525.287 313.647V340.099M525.287 313.647H551.738M525.287 340.099V366.551M525.287 340.099H551.738M525.287 366.551V393.003M525.287 366.551H551.738M525.287 393.003V419.455M525.287 393.003H551.738M525.287 419.455V445.907M525.287 419.455H551.738M525.287 445.907V472.359M525.287 445.907H551.738M525.287 472.359V498.811M525.287 472.359H551.738M525.287 498.811H551.738M551.738 -30.2285V-3.77656M551.738 -30.2285H578.19M551.738 -3.77656V22.6754M551.738 -3.77656H578.19M551.738 22.6754V49.1273M551.738 22.6754H578.19M551.738 49.1273V75.5793M551.738 49.1273H578.19M551.738 75.5793V102.031M551.738 75.5793H578.19M551.738 102.031V128.483M551.738 102.031H578.19M551.738 128.483V154.935M551.738 128.483H578.19M551.738 154.935V181.387M551.738 154.935H578.19M551.738 181.387V207.839M551.738 181.387H578.19M551.738 207.839V234.291M551.738 207.839H578.19M551.738 234.291V260.743M551.738 234.291H578.19M551.738 260.743V287.195M551.738 260.743H578.19M551.738 287.195V313.647M551.738 287.195H578.19M551.738 313.647V340.099M551.738 313.647H578.19M551.738 340.099V366.551M551.738 340.099H578.19M551.738 366.551V393.003M551.738 366.551H578.19M551.738 393.003V419.455M551.738 393.003H578.19M551.738 419.455V445.907M551.738 419.455H578.19M551.738 445.907V472.359M551.738 445.907H578.19M551.738 472.359V498.811M551.738 472.359H578.19M551.738 498.811H578.19M578.19 -30.2285V-3.77656M578.19 -30.2285H604.642M578.19 -3.77656V22.6754M578.19 -3.77656H604.642M578.19 22.6754V49.1273M578.19 22.6754H604.642M578.19 49.1273V75.5793M578.19 49.1273H604.642M578.19 75.5793V102.031M578.19 75.5793H604.642M578.19 102.031V128.483M578.19 102.031H604.642M578.19 128.483V154.935M578.19 128.483H604.642M578.19 154.935V181.387M578.19 154.935H604.642M578.19 181.387V207.839M578.19 181.387H604.642M578.19 207.839V234.291M578.19 207.839H604.642M578.19 234.291V260.743M578.19 234.291H604.642M578.19 260.743V287.195M578.19 260.743H604.642M578.19 287.195V313.647M578.19 287.195H604.642M578.19 313.647V340.099M578.19 313.647H604.642M578.19 340.099V366.551M578.19 340.099H604.642M578.19 366.551V393.003M578.19 366.551H604.642M578.19 393.003V419.455M578.19 393.003H604.642M578.19 419.455V445.907M578.19 419.455H604.642M578.19 445.907V472.359M578.19 445.907H604.642M578.19 472.359V498.811M578.19 472.359H604.642M578.19 498.811H604.642M604.642 -30.2285V-3.77656M604.642 -30.2285H631.094M604.642 -3.77656V22.6754M604.642 -3.77656H631.094M604.642 22.6754V49.1273M604.642 22.6754H631.094M604.642 49.1273V75.5793M604.642 49.1273H631.094M604.642 75.5793V102.031M604.642 75.5793H631.094M604.642 102.031V128.483M604.642 102.031H631.094M604.642 128.483V154.935M604.642 128.483H631.094M604.642 154.935V181.387M604.642 154.935H631.094M604.642 181.387V207.839M604.642 181.387H631.094M604.642 207.839V234.291M604.642 207.839H631.094M604.642 234.291V260.743M604.642 234.291H631.094M604.642 260.743V287.195M604.642 260.743H631.094M604.642 287.195V313.647M604.642 287.195H631.094M604.642 313.647V340.099M604.642 313.647H631.094M604.642 340.099V366.551M604.642 340.099H631.094M604.642 366.551V393.003M604.642 366.551H631.094M604.642 393.003V419.455M604.642 393.003H631.094M604.642 419.455V445.907M604.642 419.455H631.094M604.642 445.907V472.359M604.642 445.907H631.094M604.642 472.359V498.811M604.642 472.359H631.094M604.642 498.811H631.094M631.094 -30.2285V-3.77656M631.094 -30.2285H657.546M631.094 -3.77656V22.6754M631.094 -3.77656H657.546M631.094 22.6754V49.1273M631.094 22.6754H657.546M631.094 49.1273V75.5793M631.094 49.1273H657.546M631.094 75.5793V102.031M631.094 75.5793H657.546M631.094 102.031V128.483M631.094 102.031H657.546M631.094 128.483V154.935M631.094 128.483H657.546M631.094 154.935V181.387M631.094 154.935H657.546M631.094 181.387V207.839M631.094 181.387H657.546M631.094 207.839V234.291M631.094 207.839H657.546M631.094 234.291V260.743M631.094 234.291H657.546M631.094 260.743V287.195M631.094 260.743H657.546M631.094 287.195V313.647M631.094 287.195H657.546M631.094 313.647V340.099M631.094 313.647H657.546M631.094 340.099V366.551M631.094 340.099H657.546M631.094 366.551V393.003M631.094 366.551H657.546M631.094 393.003V419.455M631.094 393.003H657.546M631.094 419.455V445.907M631.094 419.455H657.546M631.094 445.907V472.359M631.094 445.907H657.546M631.094 472.359V498.811M631.094 472.359H657.546M631.094 498.811H657.546M657.546 -30.2285V-3.77656M657.546 -30.2285H683.998M657.546 -3.77656V22.6754M657.546 -3.77656H683.998M657.546 22.6754V49.1273M657.546 22.6754H683.998M657.546 49.1273V75.5793M657.546 49.1273H683.998M657.546 75.5793V102.031M657.546 75.5793H683.998M657.546 102.031V128.483M657.546 102.031H683.998M657.546 128.483V154.935M657.546 128.483H683.998M657.546 154.935V181.387M657.546 154.935H683.998M657.546 181.387V207.839M657.546 181.387H683.998M657.546 207.839V234.291M657.546 207.839H683.998M657.546 234.291V260.743M657.546 234.291H683.998M657.546 260.743V287.195M657.546 260.743H683.998M657.546 287.195V313.647M657.546 287.195H683.998M657.546 313.647V340.099M657.546 313.647H683.998M657.546 340.099V366.551M657.546 340.099H683.998M657.546 366.551V393.003M657.546 366.551H683.998M657.546 393.003V419.455M657.546 393.003H683.998M657.546 419.455V445.907M657.546 419.455H683.998M657.546 445.907V472.359M657.546 445.907H683.998M657.546 472.359V498.811M657.546 472.359H683.998M657.546 498.811H683.998M683.998 -30.2285V-3.77656M683.998 -30.2285H710.45M683.998 -3.77656V22.6754M683.998 -3.77656H710.45M683.998 22.6754V49.1273M683.998 22.6754H710.45M683.998 49.1273V75.5793M683.998 49.1273H710.45M683.998 75.5793V102.031M683.998 75.5793H710.45M683.998 102.031V128.483M683.998 102.031H710.45M683.998 128.483V154.935M683.998 128.483H710.45M683.998 154.935V181.387M683.998 154.935H710.45M683.998 181.387V207.839M683.998 181.387H710.45M683.998 207.839V234.291M683.998 207.839H710.45M683.998 234.291V260.743M683.998 234.291H710.45M683.998 260.743V287.195M683.998 260.743H710.45M683.998 287.195V313.647M683.998 287.195H710.45M683.998 313.647V340.099M683.998 313.647H710.45M683.998 340.099V366.551M683.998 340.099H710.45M683.998 366.551V393.003M683.998 366.551H710.45M683.998 393.003V419.455M683.998 393.003H710.45M683.998 419.455V445.907M683.998 419.455H710.45M683.998 445.907V472.359M683.998 445.907H710.45M683.998 472.359V498.811M683.998 472.359H710.45M683.998 498.811H710.45M710.45 -30.2285V-3.77656M710.45 -30.2285H736.902M710.45 -3.77656V22.6754M710.45 -3.77656H736.902M710.45 22.6754V49.1273M710.45 22.6754H736.902M710.45 49.1273V75.5793M710.45 49.1273H736.902M710.45 75.5793V102.031M710.45 75.5793H736.902M710.45 102.031V128.483M710.45 102.031H736.902M710.45 128.483V154.935M710.45 128.483H736.902M710.45 154.935V181.387M710.45 154.935H736.902M710.45 181.387V207.839M710.45 181.387H736.902M710.45 207.839V234.291M710.45 207.839H736.902M710.45 234.291V260.743M710.45 234.291H736.902M710.45 260.743V287.195M710.45 260.743H736.902M710.45 287.195V313.647M710.45 287.195H736.902M710.45 313.647V340.099M710.45 313.647H736.902M710.45 340.099V366.551M710.45 340.099H736.902M710.45 366.551V393.003M710.45 366.551H736.902M710.45 393.003V419.455M710.45 393.003H736.902M710.45 419.455V445.907M710.45 419.455H736.902M710.45 445.907V472.359M710.45 445.907H736.902M710.45 472.359V498.811M710.45 472.359H736.902M710.45 498.811H736.902M736.902 -30.2285V-3.77656M736.902 -30.2285H763.354M736.902 -3.77656V22.6754M736.902 -3.77656H763.354M736.902 22.6754V49.1273M736.902 22.6754H763.354M736.902 49.1273V75.5793M736.902 49.1273H763.354M736.902 75.5793V102.031M736.902 75.5793H763.354M736.902 102.031V128.483M736.902 102.031H763.354M736.902 128.483V154.935M736.902 128.483H763.354M736.902 154.935V181.387M736.902 154.935H763.354M736.902 181.387V207.839M736.902 181.387H763.354M736.902 207.839V234.291M736.902 207.839H763.354M736.902 234.291V260.743M736.902 234.291H763.354M736.902 260.743V287.195M736.902 260.743H763.354M736.902 287.195V313.647M736.902 287.195H763.354M736.902 313.647V340.099M736.902 313.647H763.354M736.902 340.099V366.551M736.902 340.099H763.354M736.902 366.551V393.003M736.902 366.551H763.354M736.902 393.003V419.455M736.902 393.003H763.354M736.902 419.455V445.907M736.902 419.455H763.354M736.902 445.907V472.359M736.902 445.907H763.354M736.902 472.359V498.811M736.902 472.359H763.354M736.902 498.811H763.354M763.354 -30.2285V-3.77656M763.354 -30.2285H789.806M763.354 -3.77656V22.6754M763.354 -3.77656H789.806M763.354 22.6754V49.1273M763.354 22.6754H789.806M763.354 49.1273V75.5793M763.354 49.1273H789.806M763.354 75.5793V102.031M763.354 75.5793H789.806M763.354 102.031V128.483M763.354 102.031H789.806M763.354 128.483V154.935M763.354 128.483H789.806M763.354 154.935V181.387M763.354 154.935H789.806M763.354 181.387V207.839M763.354 181.387H789.806M763.354 207.839V234.291M763.354 207.839H789.806M763.354 234.291V260.743M763.354 234.291H789.806M763.354 260.743V287.195M763.354 260.743H789.806M763.354 287.195V313.647M763.354 287.195H789.806M763.354 313.647V340.099M763.354 313.647H789.806M763.354 340.099V366.551M763.354 340.099H789.806M763.354 366.551V393.003M763.354 366.551H789.806M763.354 393.003V419.455M763.354 393.003H789.806M763.354 419.455V445.907M763.354 419.455H789.806M763.354 445.907V472.359M763.354 445.907H789.806M763.354 472.359V498.811M763.354 472.359H789.806M763.354 498.811H789.806M789.806 -30.2285V-3.77656M789.806 -30.2285H816.258V-3.77656M789.806 -3.77656V22.6754M789.806 -3.77656H816.258M789.806 22.6754V49.1273M789.806 22.6754H816.258M789.806 49.1273V75.5793M789.806 49.1273H816.258M789.806 75.5793V102.031M789.806 75.5793H816.258M789.806 102.031V128.483M789.806 102.031H816.258M789.806 128.483V154.935M789.806 128.483H816.258M789.806 154.935V181.387M789.806 154.935H816.258M789.806 181.387V207.839M789.806 181.387H816.258M789.806 207.839V234.291M789.806 207.839H816.258M789.806 234.291V260.743M789.806 234.291H816.258M789.806 260.743V287.195M789.806 260.743H816.258M789.806 287.195V313.647M789.806 287.195H816.258M789.806 313.647V340.099M789.806 313.647H816.258M789.806 340.099V366.551M789.806 340.099H816.258M789.806 366.551V393.003M789.806 366.551H816.258M789.806 393.003V419.455M789.806 393.003H816.258M789.806 419.455V445.907M789.806 419.455H816.258M789.806 445.907V472.359M789.806 445.907H816.258M789.806 472.359V498.811M789.806 472.359H816.258M789.806 498.811H816.258V472.359M816.258 -3.77656V22.6754M816.258 22.6754V49.1273M816.258 49.1273V75.5793M816.258 75.5793V102.031M816.258 102.031V128.483M816.258 128.483V154.935M816.258 154.935V181.387M816.258 181.387V207.839M816.258 207.839V234.291M816.258 234.291V260.743M816.258 260.743V287.195M816.258 287.195V313.647M816.258 313.647V340.099M816.258 340.099V366.551M816.258 366.551V393.003M816.258 393.003V419.455M816.258 419.455V445.907M816.258 445.907V472.359" stroke="black" stroke-width="0.299482"/>
</g>
<path d="M330.119 215.439L306.61 316.179H273.983L295.598 223.505V223.503L297.46 215.439H330.119Z" stroke="#0086FF" stroke-width="1.59796"/>
<path d="M321.938 164.073C330.938 164.073 338.239 171.372 338.239 180.375C338.239 189.378 330.939 196.677 321.938 196.677C312.933 196.677 305.636 189.378 305.636 180.375C305.636 171.372 312.933 164.073 321.938 164.073Z" stroke="#0086FF" stroke-width="1.59796"/>
<circle cx="322.005" cy="163.875" r="1.97494" fill="white" stroke="#0086FF" stroke-width="1.59796"/>
<circle cx="322.005" cy="196.628" r="1.97494" fill="white" stroke="#0086FF" stroke-width="1.59796"/>
<circle cx="297.273" cy="215.63" r="1.97494" fill="white" stroke="#0086FF" stroke-width="1.59796"/>
<circle cx="330.366" cy="215.63" r="1.97494" fill="white" stroke="#0086FF" stroke-width="1.59796"/>
<circle cx="273.798" cy="315.71" r="1.97494" fill="white" stroke="#0086FF" stroke-width="1.59796"/>
<circle cx="306.891" cy="315.71" r="1.97494" fill="white" stroke="#0086FF" stroke-width="1.59796"/>
<circle cx="305.059" cy="180.481" r="1.97494" fill="white" stroke="#0086FF" stroke-width="1.59796"/>
<circle cx="338.952" cy="180.481" r="1.97494" fill="white" stroke="#0086FF" stroke-width="1.59796"/>
<path d="M264.547 149.523V257.693C264.547 277.142 258.535 292.344 247.378 302.689C236.212 313.043 219.786 318.633 198.772 318.633C177.759 318.633 161.333 313.043 150.167 302.689C139.009 292.344 132.997 277.142 132.997 257.693V149.523H264.547Z" stroke="#0086FF" stroke-width="1.59796"/>
<circle cx="132.812" cy="149.708" r="1.97494" fill="white" stroke="#0086FF" stroke-width="1.59796"/>
<circle cx="132.812" cy="213.634" r="1.97494" fill="white" stroke="#0086FF" stroke-width="1.59796"/>
<circle cx="132.812" cy="258.017" r="1.97494" fill="white" stroke="#0086FF" stroke-width="1.59796"/>
<circle cx="198.957" cy="318.555" r="1.97494" fill="white" stroke="#0086FF" stroke-width="1.59796"/>
<circle cx="264.362" cy="258.017" r="1.97494" fill="white" stroke="#0086FF" stroke-width="1.59796"/>
<circle cx="265.161" cy="149.708" r="1.97494" fill="white" stroke="#0086FF" stroke-width="1.59796"/>
<circle cx="241.49" cy="149.708" r="1.97494" fill="white" stroke="#0086FF" stroke-width="1.59796"/>
<line x1="509.827" y1="75.5713" x2="-46.7167" y2="75.5713" stroke="url(#paint0_linear_2855_2463)" stroke-width="0.916016" stroke-dasharray="9.16 9.16"/>
<line x1="512.575" y1="366.406" x2="-43.9687" y2="366.406" stroke="url(#paint1_linear_2855_2463)" stroke-width="0.916016" stroke-dasharray="9.16 9.16"/>
<line x1="102.136" y1="2.00202e-08" x2="102.136" y2="494.648" stroke="url(#paint2_linear_2855_2463)" stroke-width="0.916016" stroke-dasharray="9.16 9.16"/>
<line x1="366.406" y1="-1.37402" x2="366.406" y2="493.274" stroke="url(#paint3_linear_2855_2463)" stroke-width="0.916016" stroke-dasharray="9.16 9.16"/>
<line opacity="0.5" y1="-0.458008" x2="460.992" y2="-0.458008" transform="matrix(4.37114e-08 1 1 -4.37114e-08 394.304 0)" stroke="#DBE6F2" stroke-width="0.916016"/>
<line opacity="0.24" y1="-0.458008" x2="460.992" y2="-0.458008" transform="matrix(4.37114e-08 1 1 -4.37114e-08 379.23 0)" stroke="#DBE6F2" stroke-width="0.916016"/>
<line opacity="0.5" y1="-0.458008" x2="460.992" y2="-0.458008" transform="matrix(-4.37114e-08 -1 -1 4.37114e-08 75.1133 464.656)" stroke="#DBE6F2" stroke-width="0.916016"/>
<line opacity="0.24" y1="-0.458008" x2="460.992" y2="-0.458008" transform="matrix(-4.37114e-08 -1 -1 4.37114e-08 90.1875 464.656)" stroke="#DBE6F2" stroke-width="0.916016"/>
<rect x="-4.79395" y="419.463" width="473.794" height="51.1346" fill="url(#paint4_linear_2855_2463)"/>
<rect x="468.201" y="47.9385" width="472.995" height="51.1346" transform="rotate(180 468.201 47.9385)" fill="url(#paint5_linear_2855_2463)"/>
<rect x="435.443" y="469" width="473.794" height="51.1346" transform="rotate(-90 435.443 469)" fill="url(#paint6_linear_2855_2463)"/>
<rect width="472.995" height="51.1346" transform="matrix(0 -1 -1 0 51.1345 470.598)" fill="url(#paint7_linear_2855_2463)"/>
</g>
<defs>
<linearGradient id="paint0_linear_2855_2463" x1="-46.7167" y1="74.6133" x2="492.817" y2="74.6133" gradientUnits="userSpaceOnUse">
<stop stop-color="#DBE6F2" stop-opacity="0"/>
<stop offset="0.456731" stop-color="#051729"/>
<stop offset="0.572115" stop-color="#051729"/>
<stop offset="1" stop-color="#DBE6F2" stop-opacity="0"/>
</linearGradient>
<linearGradient id="paint1_linear_2855_2463" x1="-43.9687" y1="365.448" x2="495.565" y2="365.448" gradientUnits="userSpaceOnUse">
<stop stop-color="#DBE6F2" stop-opacity="0"/>
<stop offset="0.423077" stop-color="#051729"/>
<stop offset="0.5625" stop-color="#051729"/>
<stop offset="1" stop-color="#DBE6F2" stop-opacity="0"/>
</linearGradient>
<linearGradient id="paint2_linear_2855_2463" x1="101.178" y1="494.648" x2="101.178" y2="15.1185" gradientUnits="userSpaceOnUse">
<stop stop-color="#DBE6F2" stop-opacity="0"/>
<stop offset="0.456731" stop-color="#051729"/>
<stop offset="0.634615" stop-color="#051729"/>
<stop offset="1" stop-color="#DBE6F2" stop-opacity="0"/>
</linearGradient>
<linearGradient id="paint3_linear_2855_2463" x1="365.448" y1="493.274" x2="365.448" y2="13.7445" gradientUnits="userSpaceOnUse">
<stop stop-color="#DBE6F2" stop-opacity="0"/>
<stop offset="0.466346" stop-color="#051729"/>
<stop offset="0.615385" stop-color="#051729"/>
<stop offset="1" stop-color="#DBE6F2" stop-opacity="0"/>
</linearGradient>
<linearGradient id="paint4_linear_2855_2463" x1="232.103" y1="419.463" x2="232.103" y2="470.598" gradientUnits="userSpaceOnUse">
<stop stop-color="white" stop-opacity="0"/>
<stop offset="1" stop-color="white"/>
</linearGradient>
<linearGradient id="paint5_linear_2855_2463" x1="704.698" y1="47.9385" x2="704.698" y2="99.0731" gradientUnits="userSpaceOnUse">
<stop stop-color="white" stop-opacity="0"/>
<stop offset="1" stop-color="white"/>
</linearGradient>
<linearGradient id="paint6_linear_2855_2463" x1="672.34" y1="469" x2="672.34" y2="520.135" gradientUnits="userSpaceOnUse">
<stop stop-color="white" stop-opacity="0"/>
<stop offset="1" stop-color="white"/>
</linearGradient>
<linearGradient id="paint7_linear_2855_2463" x1="236.497" y1="0" x2="236.497" y2="51.1346" gradientUnits="userSpaceOnUse">
<stop stop-color="white" stop-opacity="0"/>
<stop offset="1" stop-color="white"/>
</linearGradient>
<clipPath id="clip0_2855_2463">
<rect width="469" height="469" fill="white"/>
</clipPath>
</defs>
</svg>
