<svg width="800" height="262" viewBox="0 0 800 262" fill="none" xmlns="http://www.w3.org/2000/svg">
<path d="M307.208 228.529C277.44 209.353 237.041 205.988 171.889 224.064C102.432 240.386 79.2742 250.849 48.8612 229.845C37.1772 219.527 32.9882 202.914 36.1162 178.984C43.3712 139.974 62.9772 102.433 97.8032 60.7913C117.241 39.1293 135.273 20.5393 159.082 13.0743C177.33 8.39125 175.624 22.7323 173.416 24.7833C171.086 24.7833 167.172 25.1503 164.147 27.1243C161.692 29.0283 154.953 35.1763 154.591 43.4463C154.069 56.1063 167.17 53.4713 172.821 46.5203C178.912 38.6873 187.914 23.6873 180.833 9.70725C177.865 4.73125 172.737 1.29225 166.37 0.121252C144.568 -1.12475 124.264 9.26825 105.524 20.7583C64.5422 49.2273 31.7592 88.6753 13.2092 131.855C2.51523 157.908 -7.15677 195.228 7.34023 225.603C18.5562 246.679 41.8392 257.874 69.6182 255.533C89.1012 253.486 112.66 247.189 128.505 243.387C144.351 239.578 225.459 211.698 252.109 260.223C252.109 260.223 260.971 243.02 283.118 242.653C301.326 240.973 327.594 247.924 346.722 261.973C340.349 252.389 322.281 238.264 307.208 228.529Z" fill="black"/>
<path d="M180.161 65.6931C164.991 55.7401 134.501 74.7681 110.08 107.407C87.748 136.684 78.105 170.711 88.6 186.446C104.21 204.961 133.191 178.03 145.515 163.615L147.105 161.93C155.486 152.928 161.96 142.096 168.228 131.702C168.228 131.702 173.988 122.188 174.263 121.748C177.823 121.092 182.111 120.067 186.943 118.676C186.874 118.894 168.456 149.852 170.335 165.218C170.92 169.906 170.474 187.031 187.193 192.226C209.477 195.961 227.271 178.687 242.969 163.318C242.969 163.318 245.644 160.759 247.157 159.298C246.774 160.83 246.275 162.875 246.275 162.875C239.751 185.563 248.545 190.324 254.046 192.08C270.671 196.914 290.532 172.761 290.597 172.761C290.081 180.369 288.576 186.662 296.596 191.713C304.165 194.423 311.826 190.291 317.65 186.412C338.625 171.63 355.523 148.492 369.171 128.493H360.465C360.362 128.493 338.983 159.481 325.1 166.216C325.078 166.216 322.551 167.513 321.096 166.487C319.293 164.95 320.004 161.753 321.117 159.489C321.187 159.342 374.721 66.4931 374.721 66.4931H349.445C349.445 66.4931 346.684 70.9601 346.459 71.2531C346.289 71.1071 345.884 70.3391 345.604 69.9711C329.944 48.3091 294.481 81.6291 267.782 120.269C257.503 135.127 244.416 151.856 230.846 163.931C230.846 163.931 210.742 182.359 202.153 169.119C199.013 163.556 199.979 155.423 201.75 150.082C211.751 121.612 228.984 95.7751 248.595 80.1861C254.13 75.8711 260.148 74.6231 263.133 76.4531C265.979 78.1391 266.438 82.3071 264.638 85.1621C260.071 85.0161 256.411 86.4041 253.437 89.4781C247.577 95.6261 245.541 101.555 247.404 107.118C256.455 119.998 274.506 94.5291 273.633 79.0141C273.321 73.4511 270.354 68.1831 265.924 65.6191C259.323 61.6691 249.253 62.6921 242.736 65.8411C234.011 69.1331 220.202 80.6221 212.141 89.5521C201.993 100.751 184.588 113.191 179.146 111.798C180.925 107.04 195.626 76.9621 180.161 65.6931ZM302.022 110.189C306.939 103.384 321.25 85.1601 324.739 82.0871C336.473 71.7641 341.163 76.3061 341.569 79.5241C330.618 99.1371 317.693 121.606 305.541 141.806C305.566 141.734 301.738 147.587 301.738 147.587C296.371 155.781 290.967 162.808 282.152 167.71C280.895 168.079 278.823 168.226 277.444 167.197C275.784 166.099 275.129 164.269 275.316 162.366C275.845 156.074 282.251 136.83 302.022 110.189ZM164.517 121.971C164.517 121.971 164.296 122.632 164.188 122.848C164.16 122.848 153.167 140.776 153.167 140.776C146.533 149.633 138.25 160.76 127.896 166.1C124.827 167.124 120.584 167.785 118.422 165.079C113.839 159.589 116.201 151.977 118.12 145.831L118.8 143.635C124.302 128.707 133.031 115.531 141.529 103.309C141.635 103.237 141.873 103.164 141.959 103.164C141.98 103.237 142.014 103.237 142.028 103.384C147.36 113.628 157.358 118.383 164.835 120.582C164.88 120.582 164.929 120.655 164.929 120.802C164.93 121.02 164.808 121.315 164.517 121.971ZM174.931 100.823C174.882 100.969 170.035 112.093 170.035 112.093C169.334 112.678 168.226 112.386 166.956 112.093L164.78 111.725C157.947 109.604 152.793 105.066 151.204 99.6511C149.013 89.1121 158.016 80.8421 161.982 77.8431C165.788 75.2061 171.705 73.8161 175.141 76.5251C177.26 79.0141 178.063 82.2331 178.063 85.7481C178.064 90.5031 176.596 95.8451 174.931 100.823ZM494.471 134.778C492.033 129.51 486.248 126.143 480.082 126.508C460.059 128.339 440.474 144.805 430.19 168.442C424.794 180.592 421.849 190.617 419.918 206.571C426.145 199.401 438.845 187.619 453.257 181.178C453.257 181.178 455.218 165.883 465.218 152.27C469.002 146.633 476.574 137.559 485.077 139.973C492.507 142.462 489.895 163.028 480.021 182.93C472.715 197.569 461.535 212.21 450.223 222.307C440.222 230.796 425.425 241.042 412.479 233.139C404.325 228.311 400.166 218.208 401.044 205.182C404.94 168.225 421.764 136.755 445.839 100.895C470.663 67.5961 498.027 33.4191 534.89 15.1931C542.409 11.3881 549.372 10.5101 555.391 12.8521C555.391 12.8521 520.787 31.8801 504.292 67.0831C500.096 76.0131 494.26 88.0851 500.137 98.7711C503.208 104.332 508.66 104.772 513.051 104.479C533.27 99.7941 546.333 80.9131 557.006 63.6431C563.194 50.5431 568.694 37.5161 568.694 23.0251C568.694 21.2691 568.603 18.9281 568.455 17.1701C578.114 12.0491 597.923 21.1221 597.923 21.1221C613.402 26.2471 646.361 51.4971 657.479 56.3251C662.902 50.0321 671.814 40.5191 676.833 35.7611L669.568 31.2961C657.938 24.1971 645.645 17.4631 633.546 10.8041C606.067 -4.19691 583.699 1.07109 572.316 5.17009C567.842 6.77909 563.754 8.17009 563.754 8.17009C555.306 -1.05091 541.45 -0.174906 531.241 2.31509C494.527 12.8531 460.44 38.5401 423.895 83.1111C397.027 118.021 380.361 148.174 371.478 177.959C364.631 198.011 362.55 227.504 379.262 244.996C393.471 259.849 412.312 256.631 425.616 251.291C454.443 237.093 480.352 206.5 493.262 171.297C496.378 160.833 499.835 146.05 494.471 134.778ZM560.758 24.4901C556.942 68.2551 522.923 93.9451 514.505 95.9911C509.404 97.0141 500.7 94.7471 508.471 76.3801C519.913 51.6411 539.45 30.6391 560.41 19.8801C560.921 21.7101 560.907 22.8781 560.758 24.4901ZM762.556 30.0501C744.257 40.4441 725.287 47.1751 702.325 44.8341C695.962 52.0081 689.765 59.3991 684.054 67.0091C716.283 75.2061 750.45 56.9831 769.506 39.6401C789.665 22.1481 800.001 0.121094 800.001 0.121094C800.001 0.121094 784.891 17.3911 762.556 30.0501ZM416.73 66.4951H392.726L379.186 88.4951H403.185L416.73 66.4951Z" fill="black"/>
<path d="M702.229 230.565C699.648 232.321 696.022 230.971 697.377 226.947C700.755 216.701 714.181 195.821 714.181 195.821L751.577 129.495H725.962C724.744 131.495 722.141 136.087 722.141 136.087C720.956 134.113 717.412 129.724 715.953 128.775C709.695 124.82 700.514 126.69 694.18 130.275C666.641 146.378 646.548 178.193 630.701 203.004C630.701 203.004 614.02 230.584 604.761 232.635C597.532 233.221 598.278 223.483 598.591 221.214C601.386 204.818 607.877 189.231 614.416 175.106C627.718 165.885 642.897 153.81 656.692 140.564C686.63 111.946 711.869 79.5247 715.558 72.2797C715.558 72.2797 711.565 73.0857 706.85 73.2307C683.818 105.359 636.686 152.053 622.397 159.004C628.727 143.778 669.625 71.1077 704.427 36.3457L709.904 31.0747C718.373 22.8047 727.147 14.3157 733.985 12.9247C734.707 12.8517 735.637 12.9247 736.44 14.6107C736.745 21.0497 734.348 25.8077 731.598 31.2227L727.744 39.1277C727.744 39.1277 733.203 38.1027 736.789 36.9287C740.948 29.1017 745.556 20.3167 743.857 9.85375C743.291 6.48675 740.853 3.92575 737.668 3.33975C727.286 1.36375 715.972 9.04575 706.867 15.2687L706.5 15.4867C659.698 52.1527 620.179 104.993 585.627 177.154C583.123 179.054 573.448 181.325 571.804 180.226C575.216 173.202 579.512 163.759 581.661 153.513C582.033 150.584 582.379 147.586 582.379 144.659C582.379 138.36 580.867 132.434 575.225 128.338C568.609 125.044 560.432 126.582 554.918 129.068C530.221 139.314 511.762 164.638 498.441 185.493C491.277 198.743 484.134 212.934 482.156 229.184C480.763 241.916 483.599 250.114 490.839 254.213C498.283 258.016 507.653 254.063 511.334 252.162C536.355 238.988 553.838 212.57 567.618 188.418C568.166 188.346 575.69 188.128 581.382 186.662C581.457 186.662 581.489 186.662 581.615 186.738C581.289 187.832 578.348 196.617 578.348 196.617C569.614 222.229 565.575 239.649 573.825 249.967C585.614 264.531 605.132 249.457 621.009 229.547C617.601 253.404 629.965 257.139 639.391 255.311C650.218 252.385 662.283 240.819 667.882 234.893C666.084 241.844 666.572 254.288 676.422 255.53C683.172 256.778 688.225 253.106 694.07 249.958C715.039 238.54 740.14 200.493 746.657 189.493H738.112C728.847 203.496 717.058 221.852 702.229 230.565ZM514.011 228.017C512.681 226.04 512.24 223.88 512.196 221.544C511.941 207.193 527.381 181.495 538.278 167.495H538.301C542.867 177.495 553.209 183.923 559.452 186.632C551.699 203.905 525.106 240.897 514.011 228.017ZM563.829 178.91C563.091 179.426 550.05 175.032 547.529 162.957C545.391 152.561 552.55 144.438 559.476 140.344C562.449 138 566.927 137.198 570.212 138.364C573.261 140.417 574.087 144.079 574.087 148.024C574.087 150.444 573.766 152.93 573.483 155.198L573.421 155.712C571.237 163.825 568.013 171.623 563.829 178.91ZM668.426 223.407C668.415 223.407 665.951 225.602 665.951 225.602C662.433 228.748 658.813 232.114 654.443 230.43C653.236 229.992 652.387 228.383 652.183 227.135C651.984 218.133 656.037 209.792 659.969 201.669L660.977 199.546C672.285 180.665 685.429 158.417 704.733 142.977C707.986 140.63 711.516 138.658 715.242 140.196C716.099 141 717.097 142.391 717.097 143.78C717.097 144.221 716.705 145.391 716.48 145.756C711.088 154.469 705.954 163.615 700.961 172.397C691.203 189.742 681.08 207.669 668.426 223.407Z" fill="black"/>
</svg>
