<svg width="631" height="228" viewBox="0 0 631 228" fill="none" xmlns="http://www.w3.org/2000/svg">
<path fill-rule="evenodd" clip-rule="evenodd" d="M81.3891 10.6516C40.3798 58.812 1.05959 118.535 0.66531 163.176C0.511748 179.972 5.87397 194.636 18.7358 205.742C37.2463 221.737 57.641 227.377 77.9361 227.411C107.594 227.452 137.045 215.487 160.104 206.261C198.939 190.73 628.219 4.30994 628.219 4.30994C632.361 2.23478 631.585 -0.350856 626.402 0.939895C624.31 1.46284 159.062 127.546 159.062 127.546C150.25 130.038 141.144 131.342 131.986 131.422C96.2307 131.634 64.4143 111.787 64.6716 69.9639C64.7712 53.5992 69.7807 33.8644 81.3891 10.6516Z" fill="black"/>
</svg>
