<svg width="1124" height="302" viewBox="0 0 1124 302" fill="none" xmlns="http://www.w3.org/2000/svg">
<path d="M120 0C96.4277 0.136558 73.4178 7.21269 53.8422 20.3452C34.2665 33.4777 18.9923 52.0848 9.92589 73.8441C0.859506 95.6035 -1.59743 119.551 2.86176 142.698C7.32095 165.845 18.4987 187.166 35 204C57.475 226.289 87.8465 238.796 119.5 238.796C151.153 238.796 181.525 226.289 204 204C220.445 187.227 231.606 165.997 236.099 142.942C240.592 119.886 238.219 96.0184 229.276 74.2982C220.332 52.578 205.211 33.9602 185.786 20.753C166.361 7.5458 143.487 0.329936 120 0ZM120 196C79 196 46 163 46 120C46 77 79 43 120 43C161 43 194 77 194 120C194 163 161 196 120 196ZM360 67C339 67 318 75 307 90V70H264V302H307V218C318 232 338 239 360 239C407 239 443 203 443 153C443 103 407 67 360 67ZM353 202C346.741 201.873 340.57 200.496 334.85 197.95C329.13 195.405 323.976 191.743 319.691 187.178C315.405 182.614 312.076 177.239 309.896 171.37C307.717 165.501 306.732 159.255 307 153C306.804 145.261 308.523 137.594 312.004 130.679C315.484 123.765 320.619 117.817 326.952 113.365C333.284 108.912 340.618 106.093 348.303 105.157C355.987 104.221 363.784 105.198 371 108C379.839 111.658 387.351 117.927 392.533 125.968C397.715 134.009 400.32 143.439 400 153C400.27 159.338 399.254 165.666 397.013 171.601C394.772 177.536 391.353 182.956 386.962 187.535C382.57 192.113 377.297 195.755 371.46 198.241C365.624 200.727 359.344 202.006 353 202ZM545 67C498 67 461 104 461 153C461 202 493 239 546 239C590 239 618 213 626 184H584C579 196 564 205 546 205C524 205 507 189 503 167H628V150C628 104 597 67 545 67ZM503 136C504.886 126.031 510.237 117.049 518.106 110.644C525.975 104.239 535.855 100.823 546 101C568 101 585 116 587 136H503ZM743 67C724 67 704 75 695 90V70H651V236H695V147C695 121 709 104 731 104C752 104 763 120 763 142V236H807V135C807 94 781 67 743 67ZM917 3L823 236H869L889 185H996L1016 236H1063L970 3H917ZM904 147L943 49L981 147H904ZM1124 3H1081V236H1124V3Z" fill="black"/>
</svg>
