<svg width="40" height="8" viewBox="0 0 40 8" fill="none" xmlns="http://www.w3.org/2000/svg">
<path fill-rule="evenodd" clip-rule="evenodd" d="M21.7 4.5L17 0.1V7.5H18.4V3.4L23.1 7.8V0.4H21.7V4.5ZM10.8 0C8.6 0 6.9 1.7 6.9 3.9C6.9 6 8.7 7.8 10.8 7.8C13 7.8 14.7 6.1 14.7 3.9C14.7 1.7 13 0 10.8 0ZM10.8 6.4C9.4 6.4 8.3 5.3 8.3 3.9C8.3 2.5 9.4 1.4 10.8 1.4C12.2 1.4 13.3 2.5 13.3 3.9C13.3 5.3 12.2 6.4 10.8 6.4ZM4.5 3.9C4.1 3.6 3.6 3.4 2.9 3.2C1.5 2.8 1.5 2.4 1.5 2.2C1.5 1.8 2 1.4 2.7 1.4C3.3 1.4 3.8 1.7 4 1.8L4.1 1.9L5.2 1.1L5.1 1C5.1 1 4.2 0 2.7 0C2 0 1.3 0.2 0.8 0.6C0.3 1 0 1.6 0 2.2C0 2.8 0.3 3.4 0.8 3.8C1.2 4.1 1.7 4.3 2.4 4.5C3.8 4.9 3.8 5.3 3.8 5.5C3.8 5.9 3.3 6.3 2.6 6.3C2 6.3 1.5 6 1.3 5.9L1.2 5.8L0.1 6.6L0.2 6.7C0.2 6.7 1.1 7.7 2.6 7.7C3.3 7.7 4 7.5 4.5 7.1C5 6.7 5.3 6.1 5.3 5.5C5.3 4.9 5 4.4 4.5 3.9ZM29.3 0C27.1 0 25.4 1.7 25.4 3.9C25.4 6.1 27.2 7.8 29.3 7.8C31.5 7.8 33.2 6.1 33.2 3.9C33.2 1.7 31.4 0 29.3 0ZM29.3 6.4C27.9 6.4 26.8 5.3 26.8 3.9C26.8 2.5 27.9 1.4 29.3 1.4C30.7 1.4 31.8 2.5 31.8 3.9C31.8 5.3 30.6 6.4 29.3 6.4ZM35.6 3.8C36 4.1 36.5 4.3 37.2 4.5C38.6 4.9 38.6 5.3 38.6 5.5C38.6 5.9 38.1 6.3 37.4 6.3C36.8 6.3 36.3 6 36.1 5.9H36L34.9 6.7L35 6.8C35 6.8 35.9 7.8 37.4 7.8C38.1 7.8 38.8 7.6 39.3 7.2C39.8 6.8 40.1 6.2 40.1 5.6C40.1 5 39.8 4.4 39.3 4C38.9 3.7 38.4 3.5 37.7 3.3C36.3 2.9 36.3 2.5 36.3 2.3C36.3 1.9 36.8 1.5 37.5 1.5C38.1 1.5 38.6 1.8 38.8 1.9L38.9 2L40 1.2L39.9 1.1C39.9 1.1 39 0.1 37.5 0.1C36.8 0.1 36.1 0.300001 35.6 0.700001C35.1 1.1 34.8 1.7 34.8 2.3C34.7 2.9 35 3.4 35.6 3.8Z" fill="black"/>
</svg>
