<svg width="750" height="243" viewBox="0 0 750 243" fill="none" xmlns="http://www.w3.org/2000/svg">
<path d="M371.352 5.22502L321.277 239.4H260.677L310.827 5.22502H371.352ZM626.277 156.425L658.152 68.475L676.527 156.425H626.277ZM693.852 239.4H749.902L701.002 5.22502H649.277C649.202 5.22502 649.102 5.22502 649.027 5.22502C637.552 5.22502 627.702 12.25 623.552 22.225L623.477 22.4L532.602 239.4H596.202L608.852 204.4H686.577L693.852 239.4ZM535.727 162.95C535.977 101.125 450.252 97.725 450.852 70.1C451.052 61.7 459.027 52.75 476.527 50.475C479.777 50.15 483.527 49.95 487.327 49.95C505.102 49.95 521.952 54 536.952 61.25L536.277 60.95L546.902 11.275C530.077 4.75001 510.602 0.95 490.252 0.875H490.227C430.327 0.875 388.202 32.75 387.827 78.325C387.452 112.025 417.902 130.8 440.877 142.05C464.502 153.525 472.427 160.9 472.302 171.125C472.152 186.875 453.502 193.775 436.052 194.05C435.252 194.075 434.277 194.075 433.327 194.075C411.552 194.075 391.052 188.6 373.152 178.925L373.827 179.25L362.852 230.55C382.502 238.425 405.277 242.975 429.127 242.975C429.502 242.975 429.877 242.975 430.252 242.975H430.202C493.852 242.975 535.477 211.55 535.702 162.875L535.727 162.95ZM284.777 5.22502L186.627 239.4H122.577L74.2766 52.475C73.3516 43.375 67.7766 35.775 60.0266 31.975L59.8766 31.9C42.6766 23.45 22.6766 16.575 1.75157 12.25L0.101562 11.975L1.55156 5.20001H104.652C118.702 5.20001 130.377 15.475 132.552 28.9L132.577 29.05L158.102 164.575L221.152 5.175L284.777 5.22502Z" fill="black"/>
</svg>
