<svg width="125" height="81" viewBox="0 0 125 81" fill="none" xmlns="http://www.w3.org/2000/svg">
<path d="M43 26.4C34.4 26.4 26.8 30.4 21.8 36.6L30.4 0H18.5L0 79.2H11.9L16.5 59.4C19.2 71.6 30 80.7 43 80.7C56 80.7 70.2 68.5 70.2 53.5C70.2 38.5 58 26.3 43 26.3V26.4Z" fill="#151516"/>
<path d="M97.4002 80.8023C112.422 80.8023 124.6 68.6245 124.6 53.6023C124.6 38.5802 112.422 26.4023 97.4002 26.4023C82.378 26.4023 70.2002 38.5802 70.2002 53.6023C70.2002 68.6245 82.378 80.8023 97.4002 80.8023Z" fill="#151516"/>
</svg>
